<svg width="53" height="53" viewBox="0 0 53 53" fill="none" xmlns="http://www.w3.org/2000/svg">
<path fill-rule="evenodd" clip-rule="evenodd" d="M35.3334 19.875C35.3334 22.2177 34.4028 24.4645 32.7462 26.1211C31.0896 27.7777 28.8428 28.7083 26.5001 28.7083C24.1573 28.7083 21.9105 27.7777 20.254 26.1211C18.5974 24.4645 17.6667 22.2177 17.6667 19.875C17.6667 17.5322 18.5974 15.2855 20.254 13.6289C21.9105 11.9723 24.1573 11.0417 26.5001 11.0417C28.8428 11.0417 31.0896 11.9723 32.7462 13.6289C34.4028 15.2855 35.3334 17.5322 35.3334 19.875V19.875ZM30.9167 19.875C30.9167 21.0464 30.4514 22.1698 29.6231 22.998C28.7949 23.8263 27.6715 24.2917 26.5001 24.2917C25.3287 24.2917 24.2053 23.8263 23.377 22.998C22.5487 22.1698 22.0834 21.0464 22.0834 19.875C22.0834 18.7036 22.5487 17.5802 23.377 16.7519C24.2053 15.9236 25.3287 15.4583 26.5001 15.4583C27.6715 15.4583 28.7949 15.9236 29.6231 16.7519C30.4514 17.5802 30.9167 18.7036 30.9167 19.875V19.875Z" fill="black"/>
<path fill-rule="evenodd" clip-rule="evenodd" d="M26.5 2.20833C13.0844 2.20833 2.20837 13.0844 2.20837 26.5C2.20837 39.9156 13.0844 50.7917 26.5 50.7917C39.9157 50.7917 50.7917 39.9156 50.7917 26.5C50.7917 13.0844 39.9157 2.20833 26.5 2.20833ZM6.62504 26.5C6.62504 31.1154 8.19958 35.3642 10.8385 38.7386C12.6918 36.3048 15.0827 34.3324 17.8245 32.9755C20.5662 31.6186 23.5845 30.914 26.6436 30.9167C29.6631 30.9138 32.6434 31.6002 35.3575 32.9236C38.0716 34.2469 40.4478 36.1723 42.3051 38.5531C44.2185 36.0435 45.5068 33.1144 46.0634 30.0081C46.6201 26.9018 46.429 23.7076 45.506 20.6898C44.5831 17.672 42.9548 14.9174 40.7559 12.6538C38.557 10.3903 35.8507 8.68285 32.8609 7.67287C29.8711 6.66288 26.6838 6.37936 23.5626 6.84577C20.4415 7.31217 17.4763 8.51509 14.9124 10.355C12.3485 12.1949 10.2595 14.6189 8.81842 17.4264C7.3773 20.2339 6.62544 23.3442 6.62504 26.5V26.5ZM26.5 46.375C21.9375 46.3818 17.5127 44.8123 13.9744 41.9318C15.3986 39.8929 17.2942 38.2283 19.5 37.0794C21.7059 35.9306 24.1565 35.3316 26.6436 35.3333C29.0996 35.3314 31.5207 35.9154 33.7057 37.0369C35.8907 38.1584 37.7766 39.785 39.2068 41.7817C35.641 44.7556 31.1432 46.3815 26.5 46.375V46.375Z" fill="black"/>
</svg>
