<svg width="31" height="33" viewBox="0 0 31 33" fill="none" xmlns="http://www.w3.org/2000/svg">
<path d="M15.5 2.86957C13.3864 2.86957 11.7351 3.66169 10.5462 5.24593C9.35724 6.83017 8.76278 8.8553 8.76278 11.3213C8.74811 14.3852 9.71686 16.8139 11.669 18.6073C11.9186 18.8465 12.0066 19.1529 11.9332 19.5265L11.4268 20.6026C11.2654 20.9613 11.0269 21.2415 10.7113 21.4433C10.3957 21.645 9.73153 21.9327 8.71875 22.3064C8.67472 22.3213 7.74633 22.6277 5.93359 23.2255C4.12086 23.8234 3.15578 24.1522 3.03835 24.212C1.8054 24.7351 0.998106 25.2806 0.616477 25.8485C0.205492 26.7901 0 29.1739 0 33H31C31 29.1739 30.7945 26.7901 30.3835 25.8485C30.0019 25.2806 29.1946 24.7351 27.9616 24.212C27.8442 24.1522 26.8791 23.8234 25.0664 23.2255C23.2537 22.6277 22.3253 22.3213 22.2812 22.3064C21.2685 21.9327 20.6043 21.645 20.2887 21.4433C19.9731 21.2415 19.7346 20.9613 19.5732 20.6026L19.0668 19.5265C18.9934 19.1529 19.0814 18.8465 19.331 18.6073C21.2831 16.8139 22.2519 14.3852 22.2372 11.3213C22.2372 8.8553 21.6428 6.83017 20.4538 5.24593C19.2649 3.66169 17.6136 2.86957 15.5 2.86957Z" fill="#111453"/>
</svg>
